<?xml version="1.0" encoding="utf-8"?>
<!-- Generator: Adobe Illustrator 27.9.0, SVG Export Plug-In . SVG Version: 6.00 Build 0)  -->
<svg version="1.1" id="Layer_1" xmlns="http://www.w3.org/2000/svg" xmlns:xlink="http://www.w3.org/1999/xlink" x="0px" y="0px"
	 viewBox="0 0 2777 325.6" style="enable-background:new 0 0 2777 325.6;" xml:space="preserve">
<g id="TESLA">
	<path d="M2373.3,129.2v196.4h69.8v-131h255.2v131h69.8V129.2H2373.3 M2435.1,65.5h269.1c37.9-6.3,64.8-36.8,72.8-65.5h-414.7
		C2370.3,28.7,2398.2,58.3,2435.1,65.5 M2161,325.6c34.9-13.5,53.8-36.8,61.8-63.7h-314V0.9H1838v324.7H2161 M1314.7,64.6h249.2
		c37.9-9.9,68.8-35.9,76.8-63.7H1246v192h323v67.3h-253.2c-39.9,9.9-73.8,34.1-90.7,65.5h413.7V129.2h-323L1314.7,64.6 M700.7,65.5
		h269.1c37.9-6.3,65.8-36.8,72.8-65.5H627C634.9,28.7,662.9,58.3,700.7,65.5 M700.7,193.8h269.1c37.9-6.3,65.8-36.8,72.8-65.5H627
		C634.9,157,662.9,186.6,700.7,193.8 M700.7,325.6h269.1c37.9-6.3,65.8-36.8,72.8-65.5H627C634.9,288.8,662.9,319.3,700.7,325.6"/>
	<g>
		<path d="M0,0.9c8,28.7,35.9,57.4,72.8,64.6h113.6l6,1.8v257.4h70.8V67.3l6-1.8h113.6c37.9-9,64.8-35.9,72.8-64.6V0L0,0.9"/>
	</g>
</g>
</svg>
