<?xml version="1.0" encoding="utf-8"?>
<!-- Generator: Adobe Illustrator 27.9.0, SVG Export Plug-In . SVG Version: 6.00 Build 0)  -->
<svg version="1.1" id="Layer_1" xmlns="http://www.w3.org/2000/svg" xmlns:xlink="http://www.w3.org/1999/xlink" x="0px" y="0px"
	 viewBox="0 0 3579.5 328" style="enable-background:new 0 0 3579.5 328;" xml:space="preserve">
<path d="M3174.7,131.6V328h69.8V197h255.2v131h69.8V131.6H3174.7 M3237.5,65.5h269.1c37.9-6.3,64.8-36.8,72.8-65.5h-414.7
	C3172.8,28.7,3200.6,58.3,3237.5,65.5 M2731.6,327.6c34.9-13.5,53.8-36.8,61.8-63.7h-314V3h-70.8v324.7H2731.6 M1677.8,66.6H1927
	c37.9-9.9,68.8-35.9,76.8-63.7h-394.7v192h323v67.3h-253.2c-39.9,9.9-73.8,34.1-90.7,65.5h413.7V131.2h-323L1677.8,66.6 M855.8,65.8
	h269.1c37.9-6.3,65.8-36.8,72.8-65.5H782.1C790,29,818,58.6,855.8,65.8 M855.8,194.1h269.1c37.9-6.3,65.8-36.8,72.8-65.5H782.1
	C790,157.3,818,186.9,855.8,194.1 M855.8,327.9h269.1c37.9-6.3,65.8-36.8,72.8-65.5H782.1C790,291.1,818,321.6,855.8,327.9"/>
<g>
	<path d="M0,2.2C8,31,35.9,59.8,72.8,67h113.6l6,1.8v258.1h70.8V68.8l6-1.8h113.6c37.9-9,64.8-36,72.8-64.8V1.3L0,2.2"/>
</g>
</svg>
